<svg width="557" height="219" viewBox="0 0 557 219" fill="none" xmlns="http://www.w3.org/2000/svg">
<path d="M209.875 85.4858C209.825 83.6646 209.65 81.8435 209.376 80.0473C209.052 77.328 208.552 74.6587 207.854 72.0142C206.133 65.7525 203.588 60.0645 198.374 55.8733C194.332 52.5553 189.343 50.6094 184.129 50.3101C178.216 49.9608 172.703 51.5824 167.389 53.8775C163.872 55.4492 160.504 57.3951 157.361 59.6403C153.194 62.5093 149.253 65.7275 145.61 69.2451C143.989 70.8168 142.417 72.4383 140.771 73.9851C138.076 76.5297 135.656 79.2739 133.062 81.8934C130.467 84.5128 128.047 87.1822 125.553 89.8765C123.058 92.5708 120.314 95.4398 117.744 98.2339L113.977 102.225L114.252 102.55L114.626 102.999L126.326 116.296L127.025 115.547L127.074 115.497C127.997 114.45 128.97 113.477 129.918 112.479C133.211 108.961 136.53 105.469 139.947 102.076C144.787 97.2111 149.577 92.2715 154.666 87.6562C157.81 84.7623 161.152 82.1179 164.67 79.7479C167.364 77.8519 170.358 76.4798 173.551 75.6565C176.67 74.958 179.389 75.5069 181.559 78.0764C183.805 80.8705 185.227 84.2135 185.651 87.781C186.225 91.3734 186.374 94.9907 186.075 98.6081C185.85 101.352 185.576 104.097 185.102 106.841C184.728 108.986 184.304 111.107 183.755 113.202C183.106 115.597 182.507 118.017 181.659 120.362C180.686 123.081 179.614 125.776 178.466 128.42C176.844 132.262 174.749 135.854 172.229 139.148C171.107 140.719 169.61 141.992 167.888 142.815C166.142 143.663 164.246 144.062 162.3 143.987C158.184 143.912 154.542 142.466 151.049 140.57C148.754 139.222 146.533 137.701 144.438 136.054C140.172 132.761 136.23 129.094 132.588 125.127C130.318 122.682 128.047 120.188 125.877 117.593C125.503 117.119 125.129 116.67 124.705 116.196L122.434 113.577C120.987 111.98 119.515 110.383 118.118 108.737C114.576 104.67 111.033 100.629 107.341 96.7121C103.624 92.6457 99.6573 88.8038 95.4911 85.2114C91.9985 82.2177 88.1565 79.6481 84.0402 77.5526C79.6245 75.3073 74.71 74.2845 69.7704 74.5838C67.4004 74.6337 65.0553 75.0578 62.8599 75.906C59.043 77.5775 55.8747 80.4464 53.854 84.0888C51.8083 87.4068 50.6109 91.1738 50.3364 95.0406C50.0121 100.878 50.7604 106.716 52.5566 112.279C53.2302 114.45 54.1534 116.545 55.3009 118.491C55.5504 118.94 55.8497 119.364 56.1491 119.763C55.5503 113.626 55.6252 108.662 56.3737 104.72C56.5233 103.847 56.7479 102.999 57.0223 102.151C57.0972 101.851 57.1969 101.602 57.2717 101.352C57.2717 101.253 57.3465 101.178 57.3715 101.103L57.5711 100.629L57.671 100.404C57.7957 100.08 57.9454 99.7557 58.12 99.4314C59.1429 97.3857 60.7644 95.6893 62.7602 94.5666H62.8101L62.9598 94.4419C66.652 92.3962 70.4939 92.5709 74.4855 94.0677C78.003 95.4897 81.2712 97.4356 84.1651 99.8555C85.9363 101.228 87.5827 102.749 89.2043 104.246C92.7967 107.639 96.2146 111.207 99.4328 114.949C100.106 115.697 100.007 116.271 99.3579 116.969C97.9359 118.566 96.4141 120.088 94.8175 121.485C92.9963 123.156 90.9507 124.503 88.6805 125.501C87.009 126.25 85.1379 126.499 83.3168 126.2C81.4956 125.901 79.7992 125.077 78.452 123.83C69.8951 116.895 63.6333 100.255 61.9618 96.3628C58.6438 98.9075 55.4755 104.945 57.5461 122.358C57.8704 123.431 58.3196 124.479 58.8684 125.476C62.0367 131.489 66.1031 136.952 70.9678 141.667C73.4625 144.137 76.3814 146.108 79.5747 147.53C81.4707 148.403 83.5413 148.852 85.6369 148.877C87.7075 148.877 89.7781 148.478 91.724 147.655C95.8902 145.858 99.333 143.014 102.701 140.046C105.919 137.127 108.963 134.008 111.757 130.69C112.206 130.166 112.555 130.241 112.979 130.69C113.528 131.339 114.127 131.963 114.651 132.611C119.865 138.898 125.403 144.861 131.266 150.524C134.584 153.717 138.076 156.686 141.743 159.48C144.737 161.7 147.93 163.596 151.298 165.193C154.067 166.465 157.011 167.388 160.005 167.912C163.473 168.56 167.04 168.536 170.483 167.837C176.395 166.615 181.784 163.671 186.025 159.405C188.794 156.661 191.264 153.617 193.384 150.349C196.054 146.233 198.374 141.867 200.27 137.351C202.091 133.135 203.638 128.794 204.91 124.379C206.906 117.593 208.378 110.633 209.276 103.623C209.775 99.3565 210.049 95.0656 210.074 90.7746C210.074 89.0283 209.875 87.282 209.825 85.5357L209.875 85.4858Z" fill="url(#paint0_linear_12326_582)"/>
<path d="M160.03 168.016C157.036 167.467 154.093 166.544 151.323 165.271C147.956 163.7 144.762 161.779 141.769 159.558C138.101 156.789 134.609 153.796 131.291 150.627C125.428 144.964 119.89 138.977 114.676 132.715C114.127 132.066 113.528 131.443 113.004 130.819C112.58 130.345 100.181 115.801 99.4578 115.027C96.2396 111.285 92.8219 107.718 89.2294 104.325C87.5829 102.803 85.9363 101.306 84.19 99.9094C81.2712 97.4895 78.028 95.5436 74.5104 94.1216C70.5438 92.6497 66.677 92.4501 62.9848 94.4958L62.8351 94.5956H62.7603C61.6876 95.1943 60.7396 95.9427 59.9413 96.8408C59.2178 97.6142 58.594 98.4874 58.12 99.4603C57.9454 99.7846 57.8207 100.134 57.671 100.433L57.5712 100.658L57.3716 101.132C57.3716 101.132 57.2968 101.306 57.2719 101.381C57.1721 101.631 57.0972 101.905 57.0223 102.13C56.7479 103.003 56.5483 103.876 56.3737 104.749C55.6252 108.666 55.5505 113.63 56.1492 119.792C55.8498 119.393 55.5504 118.969 55.3009 118.52C54.1534 116.574 53.2304 114.479 52.5568 112.333C50.7606 106.745 50.0121 100.907 50.3364 95.0696C50.5859 91.1778 51.8084 87.4107 53.8291 84.0928C55.8499 80.4504 59.0181 77.5815 62.8351 75.935C65.0554 75.0867 67.4005 74.6377 69.7705 74.6127C74.7101 74.3134 79.6247 75.3362 84.0403 77.5815C88.1317 79.6521 91.9986 82.2217 95.4912 85.2403C99.6574 88.8577 103.624 92.6996 107.341 96.766C111.033 100.658 114.601 104.699 118.118 108.766C119.515 110.412 120.987 111.984 122.434 113.605L124.729 116.225C125.129 116.674 125.528 117.123 125.902 117.597C128.048 120.192 130.318 122.686 132.613 125.156C136.255 129.123 140.222 132.79 144.463 136.083C146.558 137.754 148.754 139.251 151.074 140.598C154.566 142.519 158.234 143.941 162.325 144.016L159.98 167.991L160.03 168.016Z" fill="url(#paint1_linear_12326_582)"/>
<path fill-rule="evenodd" clip-rule="evenodd" d="M257.911 69.1403H232.693V149.532H257.911V69.1403ZM289.928 69.1403H285.164V149.532H310.382V91.7731L362.505 149.532H387.723L315.147 69.1403H289.928ZM433.018 69.1403H413.261V149.532H438.48V121.582H505.942V103.859H438.48V86.834H505.942V69.1113H433.047L433.018 69.1403ZM333.538 69.1403H388.043V86.8631H350.215L333.509 69.1403H333.538ZM388.043 93.6616H356.345L388.043 128.061V93.6616Z" fill="black"/>
<defs>
<linearGradient id="paint0_linear_12326_582" x1="198.199" y1="55.9784" x2="59.3446" y2="125.59" gradientUnits="userSpaceOnUse">
<stop stop-color="#585BFF"/>
<stop offset="0.621473" stop-color="#1CDEEA"/>
</linearGradient>
<linearGradient id="paint1_linear_12326_582" x1="50.2865" y1="121.314" x2="162.375" y2="121.314" gradientUnits="userSpaceOnUse">
<stop stop-color="#5859FE"/>
<stop offset="0.09" stop-color="#5560FD" stop-opacity="0.95"/>
<stop offset="0.26" stop-color="#4D72FA" stop-opacity="0.81"/>
<stop offset="0.49" stop-color="#3F8FF6" stop-opacity="0.59"/>
<stop offset="0.76" stop-color="#2DB6F0" stop-opacity="0.29"/>
<stop offset="1" stop-color="#1CDCEA" stop-opacity="0"/>
</linearGradient>
</defs>
</svg>
